<?xml version="1.0" encoding="utf-8"?>
<svg viewBox="0 0 392 470" version="1.1" xmlns:xlink="http://www.w3.org/1999/xlink" xmlns="http://www.w3.org/2000/svg">
  <g id="r" transform="matrix(-1 0 0 1 387 5)">
    <path d="M25.0007 435.003L25.0007 282.004L70.0012 282.004L133.499 204.003L59.0011 204.003C59.0011 204.003 44.274 203.219 34.5009 191.503C24.7271 179.786 25.0007 171.002 25.0007 171.002L25.0008 82.0015C25.0008 82.0015 22.459 55.1089 34.5009 40.0006C46.7757 24.6001 70.0011 25.0009 70.0011 25.0009L357.5 25.0009L262.999 135.002L262.999 82.0015L96.0012 82.0015L96.0012 145.502L182.502 145.502C182.502 145.502 218.991 143.124 222.502 171.002C224.534 187.144 211.002 204.003 211.002 204.003L25.0007 435.003Z" fill-rule="evenodd" />
  </g>
</svg>